<mxfile host="app.diagrams.net" modified="2023-11-05T09:25:49.856Z" agent="Mozilla/5.0 (Windows NT 10.0; Win64; x64; rv:109.0) Gecko/20100101 Firefox/119.0" etag="fYq0frHWhEb7AB6AVGIw" version="22.0.8" type="github">
  <diagram name="Page-1" id="5WqEOpPuYTrerRAMtXm0">
    <mxGraphModel dx="794" dy="461" grid="1" gridSize="10" guides="1" tooltips="1" connect="1" arrows="1" fold="1" page="1" pageScale="1" pageWidth="827" pageHeight="1169" math="0" shadow="0">
      <root>
        <mxCell id="0" />
        <mxCell id="1" parent="0" />
        <mxCell id="VvpXvR8Dv2C7iNE0XI1S-2" style="edgeStyle=orthogonalEdgeStyle;rounded=0;orthogonalLoop=1;jettySize=auto;html=1;" edge="1" parent="1" source="VvpXvR8Dv2C7iNE0XI1S-1" target="VvpXvR8Dv2C7iNE0XI1S-3">
          <mxGeometry relative="1" as="geometry">
            <mxPoint x="360" y="50" as="targetPoint" />
            <Array as="points">
              <mxPoint x="310" y="170" />
              <mxPoint x="310" y="60" />
            </Array>
          </mxGeometry>
        </mxCell>
        <mxCell id="VvpXvR8Dv2C7iNE0XI1S-10" style="edgeStyle=orthogonalEdgeStyle;rounded=0;orthogonalLoop=1;jettySize=auto;html=1;entryX=0;entryY=0.5;entryDx=0;entryDy=0;" edge="1" parent="1" source="VvpXvR8Dv2C7iNE0XI1S-1" target="VvpXvR8Dv2C7iNE0XI1S-5">
          <mxGeometry relative="1" as="geometry">
            <Array as="points">
              <mxPoint x="310" y="170" />
              <mxPoint x="310" y="220" />
            </Array>
          </mxGeometry>
        </mxCell>
        <mxCell id="VvpXvR8Dv2C7iNE0XI1S-11" style="edgeStyle=orthogonalEdgeStyle;rounded=0;orthogonalLoop=1;jettySize=auto;html=1;entryX=0;entryY=0.5;entryDx=0;entryDy=0;" edge="1" parent="1" source="VvpXvR8Dv2C7iNE0XI1S-1" target="VvpXvR8Dv2C7iNE0XI1S-6">
          <mxGeometry relative="1" as="geometry">
            <Array as="points">
              <mxPoint x="310" y="170" />
              <mxPoint x="310" y="300" />
            </Array>
          </mxGeometry>
        </mxCell>
        <mxCell id="VvpXvR8Dv2C7iNE0XI1S-13" style="edgeStyle=orthogonalEdgeStyle;rounded=0;orthogonalLoop=1;jettySize=auto;html=1;" edge="1" parent="1" source="VvpXvR8Dv2C7iNE0XI1S-1" target="VvpXvR8Dv2C7iNE0XI1S-8">
          <mxGeometry relative="1" as="geometry">
            <Array as="points">
              <mxPoint x="310" y="170" />
              <mxPoint x="310" y="450" />
            </Array>
          </mxGeometry>
        </mxCell>
        <mxCell id="VvpXvR8Dv2C7iNE0XI1S-1" value="Employee" style="rounded=1;whiteSpace=wrap;html=1;" vertex="1" parent="1">
          <mxGeometry x="140" y="150" width="100" height="40" as="geometry" />
        </mxCell>
        <mxCell id="VvpXvR8Dv2C7iNE0XI1S-3" value="ID" style="ellipse;whiteSpace=wrap;html=1;" vertex="1" parent="1">
          <mxGeometry x="390" y="30" width="90" height="60" as="geometry" />
        </mxCell>
        <mxCell id="VvpXvR8Dv2C7iNE0XI1S-4" value="Number" style="ellipse;whiteSpace=wrap;html=1;" vertex="1" parent="1">
          <mxGeometry x="390" y="110" width="90" height="60" as="geometry" />
        </mxCell>
        <mxCell id="VvpXvR8Dv2C7iNE0XI1S-5" value="Name" style="ellipse;whiteSpace=wrap;html=1;" vertex="1" parent="1">
          <mxGeometry x="390" y="190" width="90" height="60" as="geometry" />
        </mxCell>
        <mxCell id="VvpXvR8Dv2C7iNE0XI1S-6" value="Email" style="ellipse;whiteSpace=wrap;html=1;" vertex="1" parent="1">
          <mxGeometry x="390" y="270" width="90" height="60" as="geometry" />
        </mxCell>
        <mxCell id="VvpXvR8Dv2C7iNE0XI1S-7" value="Salary" style="ellipse;whiteSpace=wrap;html=1;" vertex="1" parent="1">
          <mxGeometry x="390" y="340" width="90" height="60" as="geometry" />
        </mxCell>
        <mxCell id="VvpXvR8Dv2C7iNE0XI1S-17" style="edgeStyle=orthogonalEdgeStyle;rounded=0;orthogonalLoop=1;jettySize=auto;html=1;" edge="1" parent="1" source="VvpXvR8Dv2C7iNE0XI1S-8" target="VvpXvR8Dv2C7iNE0XI1S-15">
          <mxGeometry relative="1" as="geometry" />
        </mxCell>
        <mxCell id="VvpXvR8Dv2C7iNE0XI1S-18" style="edgeStyle=orthogonalEdgeStyle;rounded=0;orthogonalLoop=1;jettySize=auto;html=1;entryX=0;entryY=0.5;entryDx=0;entryDy=0;" edge="1" parent="1" source="VvpXvR8Dv2C7iNE0XI1S-8" target="VvpXvR8Dv2C7iNE0XI1S-14">
          <mxGeometry relative="1" as="geometry" />
        </mxCell>
        <mxCell id="VvpXvR8Dv2C7iNE0XI1S-19" style="edgeStyle=orthogonalEdgeStyle;rounded=0;orthogonalLoop=1;jettySize=auto;html=1;entryX=0;entryY=0.5;entryDx=0;entryDy=0;" edge="1" parent="1" source="VvpXvR8Dv2C7iNE0XI1S-8" target="VvpXvR8Dv2C7iNE0XI1S-16">
          <mxGeometry relative="1" as="geometry" />
        </mxCell>
        <mxCell id="VvpXvR8Dv2C7iNE0XI1S-8" value="Department" style="rounded=1;whiteSpace=wrap;html=1;" vertex="1" parent="1">
          <mxGeometry x="382.5" y="430" width="105" height="40" as="geometry" />
        </mxCell>
        <mxCell id="VvpXvR8Dv2C7iNE0XI1S-9" style="edgeStyle=orthogonalEdgeStyle;rounded=0;orthogonalLoop=1;jettySize=auto;html=1;entryX=0.033;entryY=0.383;entryDx=0;entryDy=0;entryPerimeter=0;" edge="1" parent="1" source="VvpXvR8Dv2C7iNE0XI1S-1" target="VvpXvR8Dv2C7iNE0XI1S-4">
          <mxGeometry relative="1" as="geometry">
            <Array as="points">
              <mxPoint x="310" y="170" />
              <mxPoint x="310" y="133" />
            </Array>
          </mxGeometry>
        </mxCell>
        <mxCell id="VvpXvR8Dv2C7iNE0XI1S-12" style="edgeStyle=orthogonalEdgeStyle;rounded=0;orthogonalLoop=1;jettySize=auto;html=1;entryX=-0.044;entryY=0.667;entryDx=0;entryDy=0;entryPerimeter=0;" edge="1" parent="1" source="VvpXvR8Dv2C7iNE0XI1S-1" target="VvpXvR8Dv2C7iNE0XI1S-7">
          <mxGeometry relative="1" as="geometry">
            <Array as="points">
              <mxPoint x="310" y="170" />
              <mxPoint x="310" y="380" />
            </Array>
          </mxGeometry>
        </mxCell>
        <mxCell id="VvpXvR8Dv2C7iNE0XI1S-14" value="ID" style="ellipse;whiteSpace=wrap;html=1;" vertex="1" parent="1">
          <mxGeometry x="530" y="380" width="100" height="30" as="geometry" />
        </mxCell>
        <mxCell id="VvpXvR8Dv2C7iNE0XI1S-15" value="Number" style="ellipse;whiteSpace=wrap;html=1;" vertex="1" parent="1">
          <mxGeometry x="530" y="435" width="100" height="30" as="geometry" />
        </mxCell>
        <mxCell id="VvpXvR8Dv2C7iNE0XI1S-16" value="Name" style="ellipse;whiteSpace=wrap;html=1;" vertex="1" parent="1">
          <mxGeometry x="530" y="490" width="100" height="30" as="geometry" />
        </mxCell>
      </root>
    </mxGraphModel>
  </diagram>
</mxfile>
